<svg width="1014" height="611" viewBox="0 0 1014 611" fill="none" xmlns="http://www.w3.org/2000/svg">
<g id="undraw_message_sent_1030 1" clip-path="url(#clip0)">
<g id="Vector" filter="url(#filter0_d)">
<path d="M333.98 360.377L325.29 358.875C324.456 358.729 323.628 358.551 322.796 358.4C336.55 349.862 346.992 336.899 352.404 321.642C357.817 306.385 357.88 289.74 352.581 274.443C347.283 259.146 336.938 246.106 323.248 237.465C309.558 228.825 293.336 225.098 277.247 226.897L288.637 254L261.652 230.437C261.589 230.452 261.527 230.473 261.467 230.498C252.631 233.611 244.493 238.433 237.52 244.69C230.547 250.947 224.875 258.517 220.828 266.966C216.78 275.415 214.436 284.579 213.931 293.934C213.425 303.29 214.766 312.653 217.879 321.489C218.331 322.774 218.868 324.001 219.384 325.243C211.765 321.415 204.457 316.959 198.497 311.254C186.432 299.692 179.821 283.737 172.433 264.081C157.797 225.128 143.706 185.612 130.177 146.009C145.099 137.935 156.653 124.804 162.763 108.976C168.874 93.1486 169.14 75.6607 163.515 59.6539C162.791 57.5945 161.951 55.6115 161.061 53.6639C160.838 53.1765 160.614 52.6922 160.381 52.2118C159.477 50.3446 158.522 48.5152 157.474 46.7594C157.302 46.4716 157.111 46.2023 156.936 45.9176C156.023 44.4372 155.061 43.0007 154.049 41.608C153.672 41.0851 153.297 40.5637 152.907 40.0532C151.76 38.5536 150.573 37.0944 149.32 35.7014C148.902 35.2353 148.458 34.7998 148.028 34.3457C147.066 33.3305 146.078 32.346 145.063 31.3921C144.528 30.8899 143.998 30.3841 143.449 29.8997C143.308 29.7755 143.177 29.6398 143.035 29.5166C143.028 29.5257 143.022 29.5354 143.016 29.5444C130.449 18.5938 114.444 12.3923 97.7798 12.018C81.116 11.6436 64.8478 17.12 51.8027 27.4953L66.6241 62.7654L39.9453 39.4826C30.6086 51.378 25.3171 65.9455 24.8427 81.06C24.3684 96.1745 28.7359 111.045 37.3083 123.503C37.2837 123.511 37.2583 123.518 37.2337 123.527C37.525 123.955 37.8559 124.347 38.1555 124.767C38.718 125.556 39.2939 126.331 39.8833 127.092C40.6413 128.068 41.4283 129.012 42.2319 129.942C42.8387 130.644 43.4368 131.353 44.0683 132.028C44.9921 133.016 45.9598 133.952 46.9341 134.883C47.5029 135.425 48.0467 135.995 48.6317 136.518C50.1652 137.888 51.7518 139.188 53.3913 140.418C53.9664 140.848 54.5732 141.228 55.1601 141.641C56.3112 142.451 57.4684 143.248 58.6634 143.987C59.405 144.446 60.1662 144.865 60.9234 145.296C62.0193 145.92 63.1229 146.525 64.2496 147.089C65.0484 147.49 65.8532 147.87 66.6664 148.241C67.8232 148.768 68.9947 149.257 70.1784 149.722C70.9728 150.034 71.7632 150.35 72.5686 150.634C73.8972 151.102 75.2455 151.508 76.6017 151.898C77.2862 152.094 77.9597 152.319 78.6506 152.496C80.6851 153.014 82.7422 153.456 84.8235 153.795C85.2148 153.859 85.6132 153.883 86.0061 153.94C87.7312 154.191 89.4655 154.393 91.2136 154.517C91.965 154.57 92.7209 154.578 93.4755 154.607C94.8884 154.662 96.3028 154.69 97.7248 154.66C98.5542 154.642 99.3831 154.599 100.215 154.552C101.599 154.474 102.985 154.353 104.373 154.19C105.193 154.095 106.011 154.001 106.831 153.877C108.318 153.651 109.802 153.356 111.287 153.034C111.384 153.012 111.482 153 111.579 152.978C117.29 169.686 123.106 186.358 129.027 202.994C121.805 196.499 113.332 191.549 104.128 188.447C94.9233 185.345 85.1822 184.156 75.502 184.954C65.8219 185.752 56.407 188.52 47.8349 193.087C39.2629 197.655 31.7147 203.926 25.6533 211.515L50.3174 238.792L16.9233 225.461C8.81195 242.47 7.78531 262.004 14.0691 279.77C16.2463 286.012 19.2973 291.915 23.131 297.302C31.3817 308.972 42.949 317.894 56.3324 322.911C69.7157 327.927 84.2976 328.806 98.1866 325.433C112.076 322.061 124.631 314.593 134.223 303.998C143.816 293.403 150.004 280.17 151.984 266.015C152.612 267.691 153.218 269.388 153.847 271.063C160.366 288.404 168.477 309.985 184.765 325.588C195.805 336.164 209.389 342.874 222.422 348.546C230.909 352.24 239.508 355.654 248.221 358.79C257.907 364.663 268.849 368.15 280.147 368.965C293.894 372.784 307.815 375.972 321.866 378.433L330.627 379.943C338.5 381.292 346.574 382.681 354.586 384.281C353.433 384.623 352.278 384.95 351.13 385.354C336.853 390.379 324.543 399.813 315.979 412.293C307.416 424.773 303.042 439.653 303.49 454.782L358.416 471.641L308.715 479.533C313.261 490.707 320.566 500.546 329.946 508.131C339.326 515.716 350.475 520.8 362.353 522.908C374.23 525.016 386.448 524.079 397.866 520.185C409.283 516.29 419.527 509.566 427.64 500.639C427.136 502.329 426.629 504.017 426.121 505.702C425.112 509.051 424.111 512.38 423.15 515.678C410.072 560.616 415.7 595.966 439.001 615.21L451.645 599.905C428.967 581.172 436.003 542.57 442.211 521.223C443.155 517.985 444.14 514.714 445.131 511.425C453.649 483.127 463.305 451.052 450.799 421.577C431.951 377.153 377.629 367.851 333.98 360.377Z" fill="#F2F2F2"/>
</g>
<g id="guy">
<path id="Vector_2" d="M670.322 295.848C670.322 295.848 660.136 341.687 680.508 333.538C700.881 325.389 688.658 293.811 688.658 293.811L670.322 295.848Z" fill="#FFB9B9"/>
<path id="Vector_3" d="M860.808 311.128C860.808 311.128 885.256 340.669 869.976 346.78C854.696 352.892 846.547 319.277 848.585 316.221C850.622 313.165 860.808 311.128 860.808 311.128Z" fill="#FFB9B9"/>
<path id="Vector_4" d="M802.746 102.306C819.623 102.306 833.305 88.6242 833.305 71.7468C833.305 54.8694 819.623 41.1875 802.746 41.1875C785.868 41.1875 772.186 54.8694 772.186 71.7468C772.186 88.6242 785.868 102.306 802.746 102.306Z" fill="#FFB9B9"/>
<path id="Vector_5" d="M779.827 83.4615L775.752 115.039L809.366 127.263L816.497 91.6102L779.827 83.4615Z" fill="#FFB9B9"/>
<path id="Vector_6" d="M798.671 114.53C798.671 114.53 781.403 106.005 777.813 99.0622L770.149 106.381C770.149 106.381 715.142 101.287 706.993 128.791C698.844 156.294 705.975 256.121 705.975 256.121C705.975 256.121 694.769 300.942 697.825 301.96C700.881 302.979 738.571 321.314 791.541 311.128C791.541 311.128 814.969 307.053 819.044 310.109C823.119 313.165 817.007 261.214 817.007 261.214C817.007 261.214 857.752 169.537 850.622 158.331C843.491 147.126 811.913 123.698 811.913 123.698L813.951 112.493C813.951 112.493 799.69 118.604 798.671 114.53Z" fill="#D43A57"/>
<path id="Vector_7" d="M715.142 121.66C715.142 121.66 696.807 130.828 693.751 145.089C690.695 159.35 662.173 277.513 665.229 284.643C668.285 291.774 667.266 300.942 667.266 300.942L693.751 297.886C693.751 297.886 688.658 290.755 691.713 287.699C694.769 284.643 697.825 274.457 695.788 270.382C693.751 266.308 691.713 273.438 702.919 260.196C714.124 246.953 739.59 125.735 715.142 121.66Z" fill="#D43A57"/>
<path id="Vector_8" d="M844.51 156.294C844.51 156.294 853.168 156.804 855.206 171.065C857.243 185.326 860.808 273.438 860.808 273.438C860.808 273.438 874.051 301.96 868.957 306.035C863.864 310.109 866.92 316.221 866.92 316.221L848.585 321.314L808.857 259.177L844.51 156.294Z" fill="#D43A57"/>
<path id="Vector_9" d="M700.881 297.886C700.881 297.886 694.769 298.904 694.769 321.314C694.769 343.725 683.564 412.992 690.695 424.197C697.825 435.402 698.844 536.248 698.844 536.248C698.844 536.248 718.198 544.397 734.496 517.913L736.534 503.652L740.608 434.384L756.907 347.799L779.317 443.552C779.317 443.552 776.261 558.658 787.466 558.658C798.671 558.658 820.062 549.491 820.062 549.491C820.062 549.491 825.156 539.304 823.118 534.211C821.081 529.118 819.044 530.136 821.081 526.062C823.118 521.987 826.174 416.048 826.174 416.048C826.174 416.048 822.1 307.053 817.007 303.997C811.913 300.942 700.881 297.886 700.881 297.886Z" fill="#012B42"/>
<path id="Vector_10" d="M700.881 532.174L684.583 549.49C684.583 549.49 655.042 576.994 680.508 578.012C705.975 579.031 720.236 561.714 720.236 559.677C720.236 557.64 721.254 550.509 728.385 550.509C735.515 550.509 752.832 533.192 748.758 526.062C744.683 518.931 732.459 515.875 732.459 515.875L700.881 532.174Z" fill="#2F2E41"/>
<path id="Vector_11" d="M788.485 554.584C788.485 554.584 776.261 579.031 783.391 584.124C790.522 589.218 792.559 591.255 792.559 591.255C792.559 591.255 798.671 590.236 797.652 599.404C796.634 608.572 834.324 613.665 836.361 606.535C838.398 599.404 837.379 585.143 833.305 581.068C829.23 576.994 817.007 548.472 817.007 548.472C817.007 548.472 803.764 533.192 788.485 554.584Z" fill="#2F2E41"/>
<path id="Vector_12" d="M833.587 47.2085L839.344 46.3908C839.344 46.3908 831.33 31.6404 815.819 28.962L821.264 25.2872C821.264 25.2872 811.802 18.5256 799.575 27.2167C793.147 31.7854 785.684 37.1783 780.194 43.9663L774.579 42.5939L775.661 48.3273L766.197 51.4832L774.843 52.614C773.651 55.3174 772.869 58.1838 772.523 61.1181C772.187 64.0561 773.007 67.0093 774.808 69.3546C774.808 69.3546 784.6 57.4831 785.113 55.3838L783.831 60.632C783.831 60.632 790.229 57.1902 790.999 54.0413L792.961 58.414L795.802 52.9905L812.029 63.074L810.323 57.6517L820.902 61.9057L818.023 55.0841C818.023 55.0841 828.749 64.9358 827.815 70.8253C826.881 76.7148 829.172 83.0716 829.172 83.0716C829.172 83.0716 845.487 58.4593 833.587 47.2085Z" fill="#2F2E41"/>
</g>
<g id="Vector_13" filter="url(#filter1_d)">
<path d="M673.371 608.992H288.537C275.917 608.992 263.815 603.978 254.891 595.055C245.967 586.131 240.954 574.028 240.954 561.408V385.097C240.954 382.536 241.476 380.003 242.487 377.651C243.498 375.298 244.978 373.177 246.837 371.416L450.76 178.113C458.914 170.384 469.72 166.076 480.954 166.076C492.188 166.076 502.995 170.384 511.148 178.113L705.579 362.417C710.436 367.021 714.304 372.566 716.947 378.714C719.591 384.863 720.954 391.485 720.954 398.177V561.408C720.954 567.657 719.723 573.845 717.332 579.618C714.941 585.391 711.436 590.636 707.017 595.055C702.599 599.473 697.353 602.978 691.58 605.37C685.807 607.761 679.62 608.992 673.371 608.992Z" fill="white"/>
</g>
<path id="Vector_14" opacity="0.1" d="M240.954 387.992H716.954V580.259C716.954 587.88 713.927 595.188 708.539 600.576C703.15 605.964 695.842 608.992 688.222 608.992H269.686C262.066 608.992 254.758 605.964 249.37 600.576C243.981 595.188 240.954 587.88 240.954 580.259V387.992Z" fill="black"/>
<path id="Vector_15" opacity="0.1" d="M657.454 395.942V590.492H303.454V395.942L480.454 481.492L657.454 395.942Z" fill="black"/>
<g id="letter">
<path id="Vector_16" d="M623.819 244H322.181C307.722 244 296 255.722 296 270.181V571.819C296 586.278 307.722 598 322.181 598H623.819C638.278 598 650 586.278 650 571.819V270.181C650 255.722 638.278 244 623.819 244Z" fill="#0DA0F2"/>
<path id="Vector_17" d="M426.954 269.992H327.954V283.992H426.954V269.992Z" fill="#F2F2F2"/>
<path id="Vector_18" d="M613.954 320.992H319.954V328.992H613.954V320.992Z" fill="#F2F2F2"/>
<path id="Vector_19" d="M613.954 347.992H319.954V355.992H613.954V347.992Z" fill="#F2F2F2"/>
<path id="Vector_20" d="M613.954 374.992H319.954V382.992H613.954V374.992Z" fill="#F2F2F2"/>
</g>
<g id="Vector_21" filter="url(#filter2_d)">
<path d="M480.454 492.492L253.66 382.875C252.258 382.197 250.706 381.886 249.15 381.972C247.594 382.057 246.086 382.537 244.766 383.365C243.446 384.193 242.358 385.342 241.604 386.705C240.85 388.069 240.454 389.601 240.454 391.159V579.759C240.454 583.532 241.197 587.269 242.641 590.755C244.085 594.241 246.202 597.408 248.87 600.076C251.538 602.744 254.705 604.861 258.191 606.304C261.677 607.748 265.413 608.492 269.186 608.492H691.722C695.495 608.492 699.231 607.748 702.717 606.304C706.203 604.861 709.371 602.744 712.039 600.076C714.707 597.408 716.823 594.241 718.267 590.755C719.711 587.269 720.454 583.532 720.454 579.759V394.39C720.454 392.489 719.971 390.619 719.051 388.955C718.131 387.292 716.803 385.889 715.193 384.878C713.582 383.868 711.741 383.283 709.843 383.179C707.945 383.074 706.051 383.453 704.339 384.281L480.454 492.492Z" fill="white"/>
</g>
<path id="Vector_22" d="M60.9542 608.492H884.954" stroke="#3F3D56" stroke-miterlimit="10"/>
<path id="Vector_23" d="M0 485.353C0 544.313 36.9886 592.023 82.6993 592.023L0 485.353Z" fill="#0DA0F2"/>
<path id="Vector_24" d="M82.6993 592.023C82.6993 532.401 123.976 484.155 174.987 484.155L82.6993 592.023Z" fill="#0DA0F2"/>
<path id="Vector_25" d="M29.9635 490.698C29.9635 546.704 53.5504 592.023 82.6993 592.023L29.9635 490.698Z" fill="#D43A57"/>
<path id="Vector_26" d="M82.6993 592.023C82.6993 515.839 130.409 454.191 189.369 454.191L82.6993 592.023Z" fill="#D43A57"/>
<path id="Vector_27" d="M65.3015 592.775C65.3015 592.775 77.0297 592.414 80.5642 589.897C84.0988 587.38 98.605 584.375 99.4819 588.412C100.359 592.448 117.107 608.488 103.866 608.594C90.6251 608.701 73.0999 606.532 69.5721 604.383C66.0444 602.234 65.3015 592.775 65.3015 592.775Z" fill="#A8A8A8"/>
<path id="Vector_28" opacity="0.2" d="M104.102 607.189C90.8614 607.296 73.3362 605.127 69.8084 602.978C67.1219 601.341 66.0513 595.469 65.6931 592.76C65.445 592.771 65.3015 592.775 65.3015 592.775C65.3015 592.775 66.0444 602.234 69.5721 604.383C73.0999 606.532 90.6251 608.701 103.866 608.594C107.688 608.564 109.008 607.204 108.936 605.19C108.405 606.406 106.947 607.166 104.102 607.189Z" fill="black"/>
<g id="circle">
<path id="Vector_29" d="M241 422.149C263.644 422.149 282 403.759 282 381.075C282 358.39 263.644 340 241 340C218.356 340 200 358.39 200 381.075C200 403.759 218.356 422.149 241 422.149Z" fill="white"/>
<path id="Vector_30" d="M241 333C231.309 333 221.835 335.874 213.777 341.258C205.719 346.642 199.439 354.295 195.73 363.249C192.021 372.202 191.051 382.054 192.942 391.559C194.832 401.065 199.499 409.795 206.352 416.648C213.205 423.501 221.936 428.168 231.441 430.059C240.946 431.949 250.798 430.979 259.752 427.27C268.705 423.561 276.358 417.281 281.742 409.223C287.126 401.165 290 391.691 290 382C289.962 369.016 284.787 356.575 275.606 347.394C266.425 338.213 253.984 333.038 241 333ZM230.941 408.125L205.828 383.013L212.872 375.969L230.964 394.062L269.151 355.875L276.195 362.918L230.941 408.125Z" fill="#57B894"/>
</g>
</g>
<defs>
<filter id="filter0_d" x="2" y="6" width="474.786" height="631.21" filterUnits="userSpaceOnUse" color-interpolation-filters="sRGB">
<feFlood flood-opacity="0" result="BackgroundImageFix"/>
<feColorMatrix in="SourceAlpha" type="matrix" values="0 0 0 0 0 0 0 0 0 0 0 0 0 0 0 0 0 0 127 0"/>
<feOffset dx="6" dy="8"/>
<feGaussianBlur stdDeviation="7"/>
<feColorMatrix type="matrix" values="0 0 0 0 0 0 0 0 0 0 0 0 0 0 0 0 0 0 0.18 0"/>
<feBlend mode="normal" in2="BackgroundImageFix" result="effect1_dropShadow"/>
<feBlend mode="normal" in="SourceGraphic" in2="effect1_dropShadow" result="shape"/>
</filter>
<filter id="filter1_d" x="234.954" y="163.076" width="500" height="462.915" filterUnits="userSpaceOnUse" color-interpolation-filters="sRGB">
<feFlood flood-opacity="0" result="BackgroundImageFix"/>
<feColorMatrix in="SourceAlpha" type="matrix" values="0 0 0 0 0 0 0 0 0 0 0 0 0 0 0 0 0 0 127 0"/>
<feOffset dx="4" dy="7"/>
<feGaussianBlur stdDeviation="5"/>
<feColorMatrix type="matrix" values="0 0 0 0 0 0 0 0 0 0 0 0 0 0 0 0 0 0 0.74 0"/>
<feBlend mode="normal" in2="BackgroundImageFix" result="effect1_dropShadow"/>
<feBlend mode="normal" in="SourceGraphic" in2="effect1_dropShadow" result="shape"/>
</filter>
<filter id="filter2_d" x="234.454" y="378.958" width="500" height="246.534" filterUnits="userSpaceOnUse" color-interpolation-filters="sRGB">
<feFlood flood-opacity="0" result="BackgroundImageFix"/>
<feColorMatrix in="SourceAlpha" type="matrix" values="0 0 0 0 0 0 0 0 0 0 0 0 0 0 0 0 0 0 127 0"/>
<feOffset dx="4" dy="7"/>
<feGaussianBlur stdDeviation="5"/>
<feColorMatrix type="matrix" values="0 0 0 0 0 0 0 0 0 0 0 0 0 0 0 0 0 0 0.74 0"/>
<feBlend mode="normal" in2="BackgroundImageFix" result="effect1_dropShadow"/>
<feBlend mode="normal" in="SourceGraphic" in2="effect1_dropShadow" result="shape"/>
</filter>
<clipPath id="clip0">
<rect width="1013.45" height="610.281" fill="white"/>
</clipPath>
</defs>
</svg>
